<?xml version="1.0" ?>
<mxfile>
  <diagram name="Page-1">
    <mxGraphModel>
      <root>
        <mxCell id="0"/>
        <mxCell id="1" parent="0"/>
        <mxCell id="2" parent="1" value="Actor" style="shape=umlActor;verticalLabelPosition=bottom;verticalAlign=top;" vertex="1">
          <mxGeometry x="40" y="60" width="30" height="60" as="geometry"/>
        </mxCell>
        <mxCell id="3" parent="1" value="images high res" style="shape=cube;whiteSpace=wrap;html=1;" vertex="1">
          <mxGeometry x="120" y="50" width="100" height="60" as="geometry"/>
        </mxCell>
        <mxCell id="4" parent="1" value="per image adds:
location
name
description" style="rounded=1;whiteSpace=wrap;html=1;" vertex="1">
          <mxGeometry x="80" y="140" width="140" height="80" as="geometry"/>
        </mxCell>
        <mxCell id="5" parent="1" value="program finds per description in poems db most matching poems.
creates telegram post which includes the image (low resolution), poem, name of author, location of the image and guid of the poem." style="rounded=1;whiteSpace=wrap;html=1;" vertex="1">
          <mxGeometry x="280" y="50" width="300" height="100" as="geometry"/>
        </mxCell>
        <mxCell id="6" parent="1" value="all high resolution images uploaded to images bucket on s3" style="rounded=1;whiteSpace=wrap;html=1;" vertex="1">
          <mxGeometry x="100" y="250" width="300" height="60" as="geometry"/>
        </mxCell>
        <mxCell id="7" parent="1" value="upload to s3 triggers lambda, which creates thumbnail per uploaded image" style="rounded=1;whiteSpace=wrap;html=1;" vertex="1">
          <mxGeometry x="100" y="330" width="300" height="60" as="geometry"/>
        </mxCell>
        <mxCell id="8" parent="1" value="Actor" style="shape=umlActor;verticalLabelPosition=bottom;verticalAlign=top;" vertex="1">
          <mxGeometry x="630" y="70" width="30" height="60" as="geometry"/>
        </mxCell>
        <mxCell id="9" parent="1" value="selecting most matching poem to the image and schedules post" style="rounded=1;whiteSpace=wrap;html=1;" vertex="1">
          <mxGeometry x="480" y="180" width="300" height="60" as="geometry"/>
        </mxCell>
        <mxCell id="10" parent="1" value="when the post get published, on very same minute, scheduled task which is running on ecs will download poem and place it on s3 as a selection" style="rounded=1;whiteSpace=wrap;html=1;" vertex="1">
          <mxGeometry x="480" y="270" width="300" height="80" as="geometry"/>
        </mxCell>
      </root>
    </mxGraphModel>
  </diagram>
</mxfile>
